<svg aria-hidden="true" style="display: inline; height: 0; position: absolute;" xmlns:xlink="http://www.w3.org/1999/xlink">
  <title>Site icons</title>
  <defs>
    <symbol id="uw-symbol-more" viewBox="0,0,1792,1792">
      <title id="title">More</title>
      <path d="M979 960q0 13-10 23l-466 466q-10 10-23 10t-23-10l-50-50q-10-10-10-23t10-23l393-393-393-393q-10-10-10-23t10-23l50-50q10-10 23-10t23 10l466 466q10 10 10 23zm384 0q0 13-10 23l-466 466q-10 10-23 10t-23-10l-50-50q-10-10-10-23t10-23l393-393-393-393q-10-10-10-23t10-23l50-50q10-10 23-10t23 10l466 466q10 10 10 23z"/>
    </symbol>
    <symbol id="uw-symbol-menu" viewBox="0 0 1024 1024">
      <title id="svg-menu">open menu</title>
      <path class="path1" d="M128 256h768v86h-768v-86zM128 554v-84h768v84h-768zM128 768v-86h768v86h-768z"></path>
    </symbol>
    <symbol id="uw-symbol-close" viewBox="0 0 805 1024">
      <title>close</title>
      <path class="path1" d="M741.714 755.429q0 22.857-16 38.857l-77.714 77.714q-16 16-38.857 16t-38.857-16l-168-168-168 168q-16 16-38.857 16t-38.857-16l-77.714-77.714q-16-16-16-38.857t16-38.857l168-168-168-168q-16-16-16-38.857t16-38.857l77.714-77.714q16-16 38.857-16t38.857 16l168 168 168-168q16-16 38.857-16t38.857 16l77.714 77.714q16 16 16 38.857t-16 38.857l-168 168 168 168q16 16 16 38.857z"></path>
    </symbol>
    <symbol id="uw-symbol-search" viewBox="0 0 951 1024">
      <title>search</title>
      <path class="path1" d="M658.286 475.429q0-105.714-75.143-180.857t-180.857-75.143-180.857 75.143-75.143 180.857 75.143 180.857 180.857 75.143 180.857-75.143 75.143-180.857zM950.857 950.857q0 29.714-21.714 51.429t-51.429 21.714q-30.857 0-51.429-21.714l-196-195.429q-102.286 70.857-228 70.857-81.714 0-156.286-31.714t-128.571-85.714-85.714-128.571-31.714-156.286 31.714-156.286 85.714-128.571 128.571-85.714 156.286-31.714 156.286 31.714 128.571 85.714 85.714 128.571 31.714 156.286q0 125.714-70.857 228l196 196q21.143 21.143 21.143 51.429z"></path>
    </symbol>
    <symbol id="uw-symbol-search-gray" viewBox="0 0 951 1024">
      <title>search</title>
      <path class="path1" d="M658.286 475.429q0-105.714-75.143-180.857t-180.857-75.143-180.857 75.143-75.143 180.857 75.143 180.857 180.857 75.143 180.857-75.143 75.143-180.857zM950.857 950.857q0 29.714-21.714 51.429t-51.429 21.714q-30.857 0-51.429-21.714l-196-195.429q-102.286 70.857-228 70.857-81.714 0-156.286-31.714t-128.571-85.714-85.714-128.571-31.714-156.286 31.714-156.286 85.714-128.571 128.571-85.714 156.286-31.714 156.286 31.714 128.571 85.714 85.714 128.571 31.714 156.286q0 125.714-70.857 228l196 196q21.143 21.143 21.143 51.429z"></path>
    </symbol>
    <symbol id="uw-symbol-search-in-blank" viewBox="0 0 951 1024">
      <title>search</title>
      <path class="path1" d="M658.286 475.429q0-105.714-75.143-180.857t-180.857-75.143-180.857 75.143-75.143 180.857 75.143 180.857 180.857 75.143 180.857-75.143 75.143-180.857zM950.857 950.857q0 29.714-21.714 51.429t-51.429 21.714q-30.857 0-51.429-21.714l-196-195.429q-102.286 70.857-228 70.857-81.714 0-156.286-31.714t-128.571-85.714-85.714-128.571-31.714-156.286 31.714-156.286 85.714-128.571 128.571-85.714 156.286-31.714 156.286 31.714 128.571 85.714 85.714 128.571 31.714 156.286q0 125.714-70.857 228l196 196q21.143 21.143 21.143 51.429z"></path>
    </symbol>
    <symbol id="uw-symbol-envelope" viewBox="0 0 1024 1024">
      <title>envelope</title>
      <path class="path1" d="M1024 405.714v453.714q0 37.714-26.857 64.571t-64.571 26.857h-841.143q-37.714 0-64.571-26.857t-26.857-64.571v-453.714q25.143 28 57.714 49.714 206.857 140.571 284 197.143 32.571 24 52.857 37.429t54 27.429 62.857 14h1.143q29.143 0 62.857-14t54-27.429 52.857-37.429q97.143-70.286 284.571-197.143 32.571-22.286 57.143-49.714zM1024 237.714q0 45.143-28 86.286t-69.714 70.286q-214.857 149.143-267.429 185.714-5.714 4-24.286 17.429t-30.857 21.714-29.714 18.571-32.857 15.429-28.571 5.143h-1.143q-13.143 0-28.571-5.143t-32.857-15.429-29.714-18.571-30.857-21.714-24.286-17.429q-52-36.571-149.714-104.286t-117.143-81.429q-35.429-24-66.857-66t-31.429-78q0-44.571 23.714-74.286t67.714-29.714h841.143q37.143 0 64.286 26.857t27.143 64.571z"></path>
    </symbol>
    <symbol id="uw-symbol-pinterest" class="uw-social-symbols" viewBox="0 0 731 1024">
      <title>pinterest-p</title>
      <path class="path1" d="M0 341.143q0-61.714 21.429-116.286t59.143-95.143 86.857-70.286 105.714-44.571 115.429-14.857q90.286 0 168 38t126.286 110.571 48.571 164q0 54.857-10.857 107.429t-34.286 101.143-57.143 85.429-82.857 58.857-108 22q-38.857 0-77.143-18.286t-54.857-50.286q-5.714 22.286-16 64.286t-13.429 54.286-11.714 40.571-14.857 40.571-18.286 35.714-26.286 44.286-35.429 49.429l-8 2.857-5.143-5.714q-8.571-89.714-8.571-107.429 0-52.571 12.286-118t38-164.286 29.714-116q-18.286-37.143-18.286-96.571 0-47.429 29.714-89.143t75.429-41.714q34.857 0 54.286 23.143t19.429 58.571q0 37.714-25.143 109.143t-25.143 106.857q0 36 25.714 59.714t62.286 23.714q31.429 0 58.286-14.286t44.857-38.857 32-54.286 21.714-63.143 11.429-63.429 3.714-56.857q0-98.857-62.571-154t-163.143-55.143q-114.286 0-190.857 74t-76.571 187.714q0 25.143 7.143 48.571t15.429 37.143 15.429 26 7.143 17.429q0 16-8.571 41.714t-21.143 25.714q-1.143 0-9.714-1.714-29.143-8.571-51.714-32t-34.857-54-18.571-61.714-6.286-60.857z"></path>
    </symbol>
    <symbol id="uw-symbol-twitter" class="uw-social-symbols" viewBox="0 0 951 1024">
      <title>twitter</title>
      <path class="path1" d="M925.714 233.143q-38.286 56-92.571 95.429 0.571 8 0.571 24 0 74.286-21.714 148.286t-66 142-105.429 120.286-147.429 83.429-184.571 31.143q-154.857 0-283.429-82.857 20 2.286 44.571 2.286 128.571 0 229.143-78.857-60-1.143-107.429-36.857t-65.143-91.143q18.857 2.857 34.857 2.857 24.571 0 48.571-6.286-64-13.143-106-63.714t-42-117.429v-2.286q38.857 21.714 83.429 23.429-37.714-25.143-60-65.714t-22.286-88q0-50.286 25.143-93.143 69.143 85.143 168.286 136.286t212.286 56.857q-4.571-21.714-4.571-42.286 0-76.571 54-130.571t130.571-54q80 0 134.857 58.286 62.286-12 117.143-44.571-21.143 65.714-81.143 101.714 53.143-5.714 106.286-28.571z"></path>
    </symbol>
    <symbol id="uw-symbol-youtube" class="uw-social-symbols" viewBox="0 0 878 1024">
      <title>youtube</title>
      <path class="path1" d="M554.857 710.857v120.571q0 38.286-22.286 38.286-13.143 0-25.714-12.571v-172q12.571-12.571 25.714-12.571 22.286 0 22.286 38.286zM748 711.429v26.286h-51.429v-26.286q0-38.857 25.714-38.857t25.714 38.857zM196 586.857h61.143v-53.714h-178.286v53.714h60v325.143h57.143v-325.143zM360.571 912h50.857v-282.286h-50.857v216q-17.143 24-32.571 24-10.286 0-12-12-0.571-1.714-0.571-20v-208h-50.857v223.429q0 28 4.571 41.714 6.857 21.143 33.143 21.143 27.429 0 58.286-34.857v30.857zM605.714 827.429v-112.571q0-41.714-5.143-56.571-9.714-32-40.571-32-28.571 0-53.143 30.857v-124h-50.857v378.857h50.857v-27.429q25.714 31.429 53.143 31.429 30.857 0 40.571-31.429 5.143-15.429 5.143-57.143zM798.857 821.714v-7.429h-52q0 29.143-1.143 34.857-4 20.571-22.857 20.571-26.286 0-26.286-39.429v-49.714h102.286v-58.857q0-45.143-15.429-66.286-22.286-29.143-60.571-29.143-38.857 0-61.143 29.143-16 21.143-16 66.286v98.857q0 45.143 16.571 66.286 22.286 29.143 61.714 29.143 41.143 0 61.714-30.286 10.286-15.429 12-30.857 1.143-5.143 1.143-33.143zM451.429 300v-120q0-39.429-24.571-39.429t-24.571 39.429v120q0 40 24.571 40t24.571-40zM862.286 729.143q0 133.714-14.857 200-8 33.714-33.143 56.571t-58.286 26.286q-105.143 12-317.143 12t-317.143-12q-33.143-3.429-58.571-26.286t-32.857-56.571q-14.857-64-14.857-200 0-133.714 14.857-200 8-33.714 33.143-56.571t58.857-26.857q104.571-11.429 316.571-11.429t317.143 11.429q33.143 4 58.571 26.857t32.857 56.571q14.857 64 14.857 200zM292 0h58.286l-69.143 228v154.857h-57.143v-154.857q-8-42.286-34.857-121.143-21.143-58.857-37.143-106.857h60.571l40.571 150.286zM503.429 190.286v100q0 46.286-16 67.429-21.143 29.143-60.571 29.143-38.286 0-60-29.143-16-21.714-16-67.429v-100q0-45.714 16-66.857 21.714-29.143 60-29.143 39.429 0 60.571 29.143 16 21.143 16 66.857zM694.857 97.714v285.143h-52v-31.429q-30.286 35.429-58.857 35.429-26.286 0-33.714-21.143-4.571-13.714-4.571-42.857v-225.143h52v209.714q0 18.857 0.571 20 1.714 12.571 12 12.571 15.429 0 32.571-24.571v-217.714h52z"></path>
    </symbol>
    <symbol id="uw-symbol-facebook" class="uw-social-symbols" viewBox="0 0 602 1024">
      <title>facebook</title>
      <path class="path1" d="M548 6.857v150.857h-89.714q-49.143 0-66.286 20.571t-17.143 61.714v108h167.429l-22.286 169.143h-145.143v433.714h-174.857v-433.714h-145.714v-169.143h145.714v-124.571q0-106.286 59.429-164.857t158.286-58.571q84 0 130.286 6.857z"></path>
    </symbol>
    <symbol id="uw-symbol-instagram" class="uw-social-symbols" viewBox="0 0 878 1024">
      <title>instagram</title>
      <path class="path1" d="M778.286 814.857v-370.286h-77.143q11.429 36 11.429 74.857 0 72-36.571 132.857t-99.429 96.286-137.143 35.429q-112.571 0-192.571-77.429t-80-187.143q0-38.857 11.429-74.857h-80.571v370.286q0 14.857 10 24.857t24.857 10h610.857q14.286 0 24.571-10t10.286-24.857zM616 510.286q0-70.857-51.714-120.857t-124.857-50q-72.571 0-124.286 50t-51.714 120.857 51.714 120.857 124.286 50q73.143 0 124.857-50t51.714-120.857zM778.286 304.571v-94.286q0-16-11.429-27.714t-28-11.714h-99.429q-16.571 0-28 11.714t-11.429 27.714v94.286q0 16.571 11.429 28t28 11.429h99.429q16.571 0 28-11.429t11.429-28zM877.714 185.714v652.571q0 46.286-33.143 79.429t-79.429 33.143h-652.571q-46.286 0-79.429-33.143t-33.143-79.429v-652.571q0-46.286 33.143-79.429t79.429-33.143h652.571q46.286 0 79.429 33.143t33.143 79.429z"></path>
    </symbol>
    <symbol id="uw-symbol-caret-up" viewBox="0 0 1792 1792">
      <title>Collapse</title>
      <path d="M1395 1184q0 13-10 23l-50 50q-10 10-23 10t-23-10l-393-393-393 393q-10 10-23 10t-23-10l-50-50q-10-10-10-23t10-23l466-466q10-10 23-10t23 10l466 466q10 10 10 23z"></path>
    </symbol>
    <symbol id="uw-symbol-caret-down" viewBox="0 0 1792 1792">
      <title>Expand</title>
      <path d="M1395 736q0 13-10 23l-466 466q-10 10-23 10t-23-10l-466-466q-10-10-10-23t10-23l50-50q10-10 23-10t23 10l393 393 393-393q10-10 23-10t23 10l50 50q10 10 10 23z"></path>
    </symbol>
    <symbol id="uw-symbol-chevron-right" viewBox="0 0 695 1024">
      <title id="svg-next-slide">next slide</title>
      <path class="path1" d="M632.571 501.143l-424 424q-10.857 10.857-25.714 10.857t-25.714-10.857l-94.857-94.857q-10.857-10.857-10.857-25.714t10.857-25.714l303.429-303.429-303.429-303.429q-10.857-10.857-10.857-25.714t10.857-25.714l94.857-94.857q10.857-10.857 25.714-10.857t25.714 10.857l424 424q10.857 10.857 10.857 25.714t-10.857 25.714z"></path>
    </symbol>
    <symbol id="uw-symbol-chevron-left" viewBox="0 0 768 1024">
      <title id="svg-previous">previous slide</title>
      <path class="path1" d="M669.143 172l-303.429 303.429 303.429 303.429q10.857 10.857 10.857 25.714t-10.857 25.714l-94.857 94.857q-10.857 10.857-25.714 10.857t-25.714-10.857l-424-424q-10.857-10.857-10.857-25.714t10.857-25.714l424-424q10.857-10.857 25.714-10.857t25.714 10.857l94.857 94.857q10.857 10.857 10.857 25.714t-10.857 25.714z"></path>
    </symbol>
    <symbol id="uw-symbol-crest-footer" viewBox="0 0 420 290">
      <title id="svg-crest-footer">Footer Crest</title>
      <style type="text/css">
        .st0{fill:#red;}
        .st1{fill:#red;}
        .st2{fill:#red;}
      </style>
      <g>
        <g>
          <path class="st2" fill="currentColor" d="M69.6,199.7c6.1,2.2,3.5,8.8,2.1,13.5l-8.9,29.9l-10.9-35.3c-1.1-3.6-1.6-6.2-1.2-8.2H39.6v0.2
            c4.3,2.3,2.8,7.6,1.3,12.6l-9.2,31l-11.7-37.9c-0.5-1.6-1.3-4.1-0.9-5.9H7.5v0.2c3.9,2.8,5.1,8.1,6.5,12.6l9.3,30.1
            c2.6,8.4,3.3,7.8,10.5,13.2l12.3-41.2l8.6,28.1c2.6,8.4,3.2,8,10.4,13.1l16.6-56.1H69.6V199.7z"/>
          <path class="st2" d="M84.4,199.7c4,1.6,3.5,7.5,3.5,11.3v30.7c0,3.7,0.5,9.7-3.5,11.2v0.2h14.9v-0.2c-3.9-1.6-3.5-7.5-3.5-11.2
            V211c0-3.7-0.5-9.7,3.5-11.3v-0.2H84.4V199.7z"/>
          <path class="st2" d="M113.1,211.5c0-5.6,5.7-7.4,10.1-7.4c4.4,0,9.3,1.9,12.4,5.1V200c-3.8-1.2-7.8-1.8-11.7-1.8
            c-9.6,0-19.7,3.9-19.7,14.2c0,17.3,27.1,15,27.1,27.7c0,5.7-6.8,8.5-11.2,8.5c-6.1,0-12.6-2.6-17.2-6.8L105,252
            c4.5,1.7,9.3,2.4,14.1,2.4c12.3,0,21.1-8.2,21.1-16.9C140.1,222.5,113.1,222.7,113.1,211.5z"/>
          <path class="st2" d="M172,247.7c-12.1,0-20-10.7-20-22.7c0-11.8,7.6-20.1,18.4-20.1c5.2,0,10.2,1.8,14.6,4.6v-9.4
            c-4.6-1.1-9.5-2-14.3-2c-16.1,0-27.6,11.2-27.6,28.1c0,17.5,11.5,28.2,30,28.2c4.1,0,8.2-0.6,11.9-2.4l4-9.5h-0.2
            C183.8,245.5,177.9,247.7,172,247.7z"/>
          <path class="st2" d="M217.4,198.1c-16.5-0.4-29.5,12.6-29.5,28c0,16.7,13.1,28.3,28.7,28.3c15.7,0,28.9-12.1,28.9-28.7
            C245.5,211.1,233.9,198,217.4,198.1z M217,248.6c-12.3,0-20.1-11.7-20.1-23.2c0-12.3,7.8-21.4,20-21.4c12.4,0,19.7,11.5,19.7,23.4
            C236.5,239.5,228.9,248.6,217,248.6z"/>
          <path class="st2" d="M285.9,199.7c4.2,2.4,4.1,5.7,4.1,10.3v30.9l-28.8-37.7l-1.1-1.6c-0.6-0.7-0.9-1.1-1.2-2v-0.1h-11.5v0.2
            c4.1,2.4,4.1,5.7,4.1,10.3v32.5c0,4.6,0,7.8-4.2,10.4v0.2h13.9v-0.2c-4.2-2.5-4.1-5.8-4.1-10.4V211l27,35.5
            c3.5,4.7,5.9,7.3,11.5,9.3V210c0-4.6,0-7.8,4.1-10.3v-0.2h-13.8V199.7z"/>
          <path class="st2" d="M311.3,211.5c0-5.6,5.7-7.4,10.1-7.4c4.4,0,9.3,1.9,12.3,5.1V200c-3.8-1.2-7.8-1.8-11.7-1.8
            c-9.6,0-19.7,3.9-19.7,14.2c0,17.3,27.1,15,27.1,27.7c0,5.7-6.8,8.5-11.2,8.5c-6.1,0-12.6-2.6-17.2-6.8l2.3,10.2
            c4.5,1.7,9.3,2.4,14.1,2.4c12.3,0,21.1-8.2,21.1-16.9C338.3,222.5,311.3,222.7,311.3,211.5z"/>
          <path class="st2" d="M341.3,199.7c4,1.6,3.5,7.5,3.5,11.3v30.7c0,3.7,0.5,9.7-3.5,11.2v0.2h14.9v-0.2c-3.9-1.6-3.5-7.5-3.5-11.2
            V211c0-3.7-0.5-9.7,3.5-11.3v-0.2h-14.9V199.7z"/>
          <path class="st2" d="M398.6,199.5v0.2c4.2,2.4,4.1,5.7,4.1,10.3v30.9l-28.8-37.7l-1.1-1.6c-0.5-0.7-0.9-1.1-1.2-2v-0.1h-11.5v0.2
            c4.1,2.4,4.1,5.7,4.1,10.3v32.5c0,4.6,0,7.8-4.2,10.4v0.2H374v-0.2c-4.2-2.5-4.1-5.8-4.1-10.4V211l27,35.5
            c3.5,4.7,5.9,7.3,11.5,9.3V210c0-4.6,0-7.8,4.1-10.3v-0.2H398.6z"/>
        </g>
        <g>
          <path class="st2" d="M20,265.3v8.9c0,3.3,1.5,4.8,3.5,4.8c2.2,0,3.6-1.5,3.6-4.8v-8.9h2v8.8c0,4.6-2.4,6.5-5.7,6.5
            c-3.1,0-5.4-1.7-5.4-6.4v-8.8H20z"/>
          <path class="st2" d="M33.8,280.3v-15h2.1l4.8,7.6c1.1,1.8,2,3.3,2.7,4.9l0.1,0c-0.2-2-0.2-3.8-0.2-6.2v-6.3H45v15h-2l-4.8-7.6
            c-1-1.7-2-3.4-2.8-5l-0.1,0c0.1,1.9,0.1,3.7,0.1,6.2v6.4H33.8z"/>
          <path class="st2" d="M51.6,265.3v15h-2v-15H51.6z"/>
          <path class="st2" d="M59.6,280.3l-4.9-15h2.1l2.3,7.4c0.6,2,1.2,3.8,1.6,5.6h0c0.4-1.7,1-3.6,1.7-5.6l2.5-7.4h2.1l-5.4,15H59.6z"
            />
          <path class="st2" d="M77.8,273.2h-5.8v5.4h6.5v1.6H70v-15h8.1v1.6h-6.2v4.7h5.8V273.2z"/>
          <path class="st2" d="M82.2,265.5c1-0.2,2.4-0.3,3.7-0.3c2.1,0,3.4,0.4,4.3,1.2c0.7,0.7,1.2,1.7,1.2,2.9c0,2-1.2,3.3-2.8,3.8v0.1
            c1.1,0.4,1.8,1.5,2.2,3c0.5,2.1,0.8,3.5,1.2,4.1h-2c-0.2-0.4-0.6-1.7-1-3.6c-0.4-2.1-1.3-2.8-3-2.9h-1.8v6.5h-1.9V265.5z
             M84.2,272.3h2c2.1,0,3.4-1.1,3.4-2.8c0-1.9-1.4-2.8-3.4-2.8c-0.9,0-1.6,0.1-1.9,0.2V272.3z"/>
          <path class="st2" d="M95.3,277.9c0.9,0.6,2.1,1,3.4,1c2,0,3.1-1,3.1-2.6c0-1.4-0.8-2.2-2.8-3c-2.4-0.9-4-2.2-4-4.3
            c0-2.3,1.9-4.1,4.9-4.1c1.5,0,2.6,0.4,3.3,0.7l-0.5,1.6c-0.5-0.3-1.5-0.7-2.8-0.7c-2,0-2.8,1.2-2.8,2.2c0,1.4,0.9,2.1,3,2.9
            c2.5,1,3.8,2.2,3.8,4.4c0,2.3-1.7,4.3-5.2,4.3c-1.4,0-3-0.4-3.8-1L95.3,277.9z"/>
          <path class="st2" d="M109.7,265.3v15h-2v-15H109.7z"/>
          <path class="st2" d="M117.2,266.9h-4.6v-1.6h11.1v1.6h-4.6v13.3h-2V266.9z"/>
          <path class="st2" d="M130.7,280.3v-6.4l-4.8-8.6h2.2l2.1,4.1c0.6,1.1,1,2,1.5,3.1h0c0.4-1,0.9-2,1.5-3.1l2.2-4.1h2.2l-5,8.6v6.4
            H130.7z"/>
          <path class="st2" d="M159.5,272.6c0,5.1-3.1,7.9-7,7.9c-4,0-6.7-3.1-6.7-7.6c0-4.8,2.9-7.9,6.9-7.9
            C156.9,265,159.5,268.1,159.5,272.6z M147.8,272.8c0,3.2,1.7,6.1,4.8,6.1c3.1,0,4.8-2.8,4.8-6.2c0-3-1.6-6.1-4.8-6.1
            S147.8,269.6,147.8,272.8z"/>
          <path class="st2" d="M163.3,265.3h8.1v1.6h-6.1v5h5.7v1.6h-5.7v6.8h-2V265.3z"/>
          <path class="st2" d="M183.1,280.3l-3.8-15h2l1.8,7.6c0.4,1.9,0.8,3.7,1.1,5.2h0c0.2-1.5,0.7-3.3,1.2-5.2l2-7.6h2l1.8,7.6
            c0.4,1.8,0.8,3.6,1,5.1h0c0.3-1.6,0.7-3.3,1.2-5.2l2-7.6h2l-4.2,15h-2l-1.9-7.8c-0.5-1.9-0.8-3.4-1-4.9h0c-0.2,1.5-0.6,3-1.2,4.9
            l-2.1,7.8H183.1z"/>
          <path class="st2" d="M202.7,265.3v15h-2v-15H202.7z"/>
          <path class="st2" d="M207.1,277.9c0.9,0.6,2.1,1,3.4,1c2,0,3.1-1,3.1-2.6c0-1.4-0.8-2.2-2.8-3c-2.4-0.9-4-2.2-4-4.3
            c0-2.3,1.9-4.1,4.8-4.1c1.5,0,2.6,0.4,3.3,0.7l-0.5,1.6c-0.5-0.3-1.5-0.7-2.8-0.7c-2,0-2.8,1.2-2.8,2.2c0,1.4,0.9,2.1,3,2.9
            c2.5,1,3.8,2.2,3.8,4.4c0,2.3-1.7,4.3-5.2,4.3c-1.4,0-3-0.4-3.8-1L207.1,277.9z"/>
          <path class="st2" d="M230.1,279.8c-0.7,0.4-2.1,0.7-4,0.7c-4.2,0-7.4-2.7-7.4-7.6c0-4.7,3.2-7.9,7.8-7.9c1.8,0,3,0.4,3.6,0.7
            l-0.5,1.6c-0.7-0.4-1.8-0.6-3-0.6c-3.5,0-5.9,2.2-5.9,6.2c0,3.7,2.1,6,5.7,6c1.2,0,2.4-0.2,3.2-0.6L230.1,279.8z"/>
          <path class="st2" d="M246.2,272.6c0,5.1-3.1,7.9-7,7.9c-4,0-6.7-3.1-6.7-7.6c0-4.8,2.9-7.9,6.9-7.9
            C243.5,265,246.2,268.1,246.2,272.6z M234.5,272.8c0,3.2,1.7,6.1,4.8,6.1c3.1,0,4.8-2.8,4.8-6.2c0-3-1.6-6.1-4.8-6.1
            C236.1,266.6,234.5,269.6,234.5,272.8z"/>
          <path class="st2" d="M250,280.3v-15h2.1l4.8,7.6c1.1,1.8,2,3.3,2.7,4.9l0.1,0c-0.2-2-0.2-3.8-0.2-6.2v-6.3h1.8v15h-2l-4.8-7.6
            c-1-1.7-2-3.4-2.8-5l-0.1,0c0.1,1.9,0.1,3.7,0.1,6.2v6.4H250z"/>
          <path class="st2" d="M265.7,277.9c0.9,0.6,2.1,1,3.4,1c2,0,3.1-1,3.1-2.6c0-1.4-0.8-2.2-2.8-3c-2.4-0.9-4-2.2-4-4.3
            c0-2.3,1.9-4.1,4.8-4.1c1.5,0,2.6,0.4,3.3,0.7l-0.5,1.6c-0.5-0.3-1.5-0.7-2.8-0.7c-2,0-2.8,1.2-2.8,2.2c0,1.4,0.9,2.1,3,2.9
            c2.5,1,3.8,2.2,3.8,4.4c0,2.3-1.7,4.3-5.2,4.3c-1.4,0-3-0.4-3.8-1L265.7,277.9z"/>
          <path class="st2" d="M280.1,265.3v15h-2v-15H280.1z"/>
          <path class="st2" d="M284.8,280.3v-15h2.1l4.8,7.6c1.1,1.8,2,3.3,2.7,4.9l0.1,0c-0.2-2-0.2-3.8-0.2-6.2v-6.3h1.8v15h-2l-4.8-7.6
            c-1-1.7-2-3.4-2.8-5l-0.1,0c0.1,1.9,0.1,3.7,0.1,6.2v6.4H284.8z"/>
          <path class="st2" d="M309.5,273.9v1.3h-9.8v-1.3H309.5z"/>
          <path class="st2" d="M325.7,273.7c-0.1-2.1-0.2-4.6-0.2-6.5h0c-0.5,1.7-1.1,3.6-1.9,5.7l-2.6,7.3h-1.5L317,273
            c-0.7-2.1-1.3-4-1.7-5.8h0c0,1.9-0.2,4.4-0.3,6.6l-0.4,6.4h-1.8l1-15h2.5l2.6,7.3c0.6,1.8,1.1,3.5,1.5,5.1h0
            c0.4-1.5,0.9-3.2,1.6-5.1l2.7-7.3h2.5l0.9,15h-1.9L325.7,273.7z"/>
          <path class="st2" d="M334.5,275.5l-1.6,4.7h-2l5.1-15h2.3l5.1,15h-2.1l-1.6-4.7H334.5z M339.4,274l-1.5-4.3
            c-0.3-1-0.6-1.9-0.8-2.7h0c-0.2,0.9-0.4,1.8-0.8,2.7l-1.5,4.3H339.4z"/>
          <path class="st2" d="M347,265.5c1.2-0.2,2.6-0.3,4.1-0.3c2.8,0,4.8,0.7,6.1,1.9c1.4,1.2,2.1,3,2.1,5.4c0,2.4-0.8,4.4-2.2,5.8
            c-1.4,1.4-3.7,2.2-6.7,2.2c-1.4,0-2.5-0.1-3.5-0.2V265.5z M348.9,278.7c0.5,0.1,1.2,0.1,2,0.1c4.2,0,6.4-2.3,6.4-6.4
            c0-3.5-2-5.8-6.1-5.8c-1,0-1.8,0.1-2.3,0.2V278.7z"/>
          <path class="st2" d="M365,265.3v15h-2v-15H365z"/>
          <path class="st2" d="M369.5,277.9c0.9,0.6,2.1,1,3.4,1c2,0,3.1-1,3.1-2.6c0-1.4-0.8-2.2-2.8-3c-2.4-0.9-4-2.2-4-4.3
            c0-2.3,1.9-4.1,4.8-4.1c1.5,0,2.6,0.4,3.3,0.7l-0.5,1.6c-0.5-0.3-1.5-0.7-2.8-0.7c-2,0-2.8,1.2-2.8,2.2c0,1.4,0.9,2.1,3,2.9
            c2.5,1,3.8,2.2,3.8,4.4c0,2.3-1.7,4.3-5.2,4.3c-1.4,0-3-0.4-3.8-1L369.5,277.9z"/>
          <path class="st2" d="M394.8,272.6c0,5.1-3.1,7.9-7,7.9c-4,0-6.7-3.1-6.7-7.6c0-4.8,2.9-7.9,6.9-7.9
            C392.1,265,394.8,268.1,394.8,272.6z M383.1,272.8c0,3.2,1.7,6.1,4.8,6.1c3.1,0,4.8-2.8,4.8-6.2c0-3-1.6-6.1-4.8-6.1
            C384.7,266.6,383.1,269.6,383.1,272.8z"/>
          <path class="st2" d="M398.6,280.3v-15h2.1l4.8,7.6c1.1,1.8,2,3.3,2.7,4.9l0.1,0c-0.2-2-0.2-3.8-0.2-6.2v-6.3h1.8v15h-2l-4.8-7.6
            c-1-1.7-2-3.4-2.8-5l-0.1,0c0.1,1.9,0.1,3.7,0.1,6.2v6.4H398.6z"/>
        </g>
        <g>
          <g>
            <path class="st2" d="M213.8,37.7c-0.8,9.2,7.4,11,10.2,10.9c0.3,0,0.7-0.4-0.3-1.5c-2.1-2.8-2.8-7-2.1-10.4
              c0.9-4.2,3.9-7.5,8.2-7.5c7.1,0,13.4,3.7,18.3,10.1c1.2-1.4,2.7-2.5,4.3-3.3c-6.2-8.2-14.4-12.8-24-12.8c-1.4,0-4.9,0.2-7.9,2.1
              C217.3,27.8,214.3,31.8,213.8,37.7z"/>
            <path class="st2" d="M258.1,76.2c-0.7-14.8-4.5-26.5-10.1-34.3c-0.9,2.5-4,8-13.9,13.8c7.8,5.7,11,16.2,12.3,23.9
              C251.9,79.1,256.2,77.2,258.1,76.2z"/>
            <path class="st2" d="M194.5,39.2c-0.3-3.6-2.1-3.4-2.2-3.4c-1,0-2.6,2.1-2.6,6.1c0,3.5,1.7,7.4,5,5.4c2.8-2,3.8-6.7,3.1-10.2
              c-0.3-1.6-1.8-6.1-6.3-6.1c-6.6,0-12.8,3.5-17.7,9.9c0.5,1.7,3.3,7.8,14.1,14.1c0,0,0,0,0,0c3.6-2.3,8-3.3,11.8-3.3
              c6,0,7.9,1.8,10.7,1.8c0,0,0.1,0,0.1,0c0,0,0.1,0,0.1,0c2.8,0,4.6-1.8,10.7-1.8c3.9,0,8.2,0.9,11.8,3.3c0,0,0,0,0,0
              c10.9-6.4,13.6-12.6,14.1-14.2c0,0-0.1-0.1-0.1-0.1l0,0c0,0,0,0,0,0c-4.9-6.3-11.1-9.7-17.6-9.7c-4.6,0-6,4.5-6.4,6.1
              c-0.8,3.6,0.3,8.2,3.1,10.2c3.3,2,5-1.8,5-5.4c0-4-1.5-6.1-2.6-6.1c-0.1,0-1.9-0.2-2.2,3.4c-0.3,4,2.2,5.3,2.3,2.8
              c0-1.7-0.9-2.3-0.8-2.7c0.1-0.4,0.5-0.7,0.9-0.6c1.3,0.3,1.4,2.6,1.2,4.1c-0.3,1.7-1.1,3.4-2.1,3.3c-1.8-0.2-3.2-4.1-3.1-7
              c0.2-4.1,2.5-5.2,3.8-5.2c2.2,0,3.9,3.5,3.9,8.1c0,4.6-1.7,8.1-3.9,8.1c-0.9,0.1-17.9,2.4-16.5-12.4c0.6-7,4.5-12,8.5-14.4
              c-3.8-2.2-7.9,1.4-9.5,6.4c-0.3,1-0.9,1.1-1.2,0.1c-1.4-4.8-6.3-8.7-10-6.5c3.9,2.4,8.2,7.4,8.9,14.4
              c1.4,14.8-15.7,12.5-16.5,12.4c-2.2,0-3.9-3.5-3.9-8.1c0-4.6,1.7-8.1,3.9-8.1c1.3,0,3.6,1.1,3.8,5.2c0.1,2.9-1.3,6.7-3.1,7
              c-0.9,0.1-1.8-1.6-2.1-3.3c-0.2-1.5-0.1-3.8,1.2-4.1c0.4-0.1,0.8,0.2,0.9,0.6c0.1,0.4-0.8,1-0.8,2.7
              C192.3,44.5,194.9,43.2,194.5,39.2z"/>
            <path class="st2" d="M196.9,167.7c1.4-1.1,5.5-4.5,7.2-8.8c-4.7-3.4-10.9-9.8-17.2-20.6c-3.5,3.1-8.4,4.4-10.5,4.8
              C181.9,153.5,188.8,162.2,196.9,167.7z"/>
            <path class="st2" d="M162.9,76.2c2,1,6.2,2.9,11.8,3.4c1.3-7.7,4.4-18.2,12.3-23.9C177.1,50,174,44.5,173,42
              C167.5,49.7,163.8,61.4,162.9,76.2z"/>
            <path class="st2" d="M175.9,142c1.8-0.3,7-1.6,10.4-4.7c-1.7-3.1-3.5-6.5-5.2-10.2c-1-2.2-3.4-8-5.2-16.2l-0.1-0.4
              c-1-4.6-1.7-9.4-1.9-14l0-0.3c0-0.5,0-0.9-0.1-1.4c-0.1-2.4-0.1-4.8,0-7.2c0.1-1.5,0.2-3.9,0.6-6.7c-5.3-0.5-9.5-2.2-11.7-3.3
              C161.7,99.2,166.5,123.3,175.9,142z"/>
            <path class="st2" d="M214.2,171.9c-0.3-1.3-2.5-1.9-3.8-1.9c-1.3,0-3.5,0.6-3.8,1.9c-0.9,4.6,1.5,8.5,3.1,10.5
              c0,0,0.3,0.4,0.7,0.4c0.3,0,0.7-0.4,0.7-0.4C212.8,180.4,215.1,176.6,214.2,171.9z"/>
            <path class="st2" d="M168.6,36.1c1.6,0.8,3.1,1.9,4.3,3.3c5-6.5,11.3-10.1,18.4-10.1c4.3,0,7.3,3.3,8.2,7.5
              c0.7,3.4,0,7.6-2.1,10.4c-0.9,0.9-0.8,1.2-0.5,1.2c1.8,0,11.2-1.4,10.4-10.6c-0.5-6-3.4-9.9-6.8-12.3c-3-1.9-6.5-2.1-7.9-2.1
              C183,23.3,174.8,27.9,168.6,36.1z"/>
            <path class="st2" d="M203.6,21.2c3,0.9,5.5,4,6.8,6.6c0,0,0,0.1,0.1,0.1c0,0,0.1,0,0.1-0.1c1.3-2.6,3.8-5.7,6.8-6.6
              c1.4-0.4,3.5-0.5,5.7,1.4c1.2-0.5,2.4-0.8,3.5-1c-1.4-2.8-4.3-4.6-7.5-4.6c-3.7,0-6.9,2.4-8,5.9c-0.3,0.9-0.8,0.9-1.1,0
              c-1.1-3.5-4.4-5.9-8-5.9c-3.2,0-6.1,1.8-7.5,4.6c1.1,0.2,2.3,0.5,3.5,1C200.1,20.8,202.2,20.8,203.6,21.2z"/>
            <path class="st2" d="M203.8,16l1.2,0.3c2.2,0.7,4.1,2.2,5.3,4.3c0,0.1,0.1,0.2,0.2,0.2c0.1-0.1,0.2-0.2,0.2-0.2
              c1.2-2.1,3.1-3.6,5.3-4.3l1.2-0.3c0.4-0.1,0.9-0.1,1.3-0.2c0-0.1-1.5-6.4-8-6.4c-6.5,0-8,6.3-8,6.4C203,15.9,203.4,16,203.8,16z"
              />
            <path class="st2" d="M248.8,40.3c5.8,8,9.7,19.8,10.9,34.1c1.6-0.6,3.4-0.9,5.1-0.9c0-0.6-0.1-1.2-0.1-1.7
              c-1.5-14.6-5.5-26.4-11.5-34.8C251.4,37.8,249.9,38.9,248.8,40.3z"/>
            <path class="st2" d="M192.5,173.3c4.4,3,9,5.2,13.8,6.5c-0.8-1.8-1.4-3.9-1.4-6.3c-3.2-1.1-6.2-2.7-9.1-4.7
              C194.4,170.1,193.2,171.6,192.5,173.3z"/>
            <path class="st2" d="M156.2,73.5c1.8,0,3.5,0.3,5.1,0.9c1.2-14.3,5.1-26.1,10.8-34.1c-1.2-1.4-2.7-2.6-4.3-3.3
              c-6,8.4-10,20.2-11.5,34.8C156.3,72.4,156.3,73,156.2,73.5z"/>
            <path class="st2" d="M254.1,139.7c8.6-19.7,12.4-43.2,10.7-65c-1.8-0.1-3.5,0.3-5.1,0.9c0,0.5,0.1,0.9,0.1,1.4
              c1.3,21.7-3.4,45.7-12.7,64.6c1.8,0.4,3.6,1.2,5.1,2.3C252.9,142.5,253.5,141.1,254.1,139.7z"/>
            <path class="st2" d="M246.6,142.6c-5.4,10.7-12.3,19.7-20.5,25.6c1.4,1.2,2.6,2.8,3.3,4.5c8.6-6.2,16.2-15.7,22.2-27.8
              C250.2,143.7,248.5,142.9,246.6,142.6z"/>
            <path class="st2" d="M191.6,172.7c0.8-1.7,1.9-3.2,3.3-4.5c-8.2-5.9-15.1-14.9-20.5-25.6c-1.8,0.3-3.6,1.1-5.1,2.3
              C175.3,157,182.9,166.5,191.6,172.7z"/>
            <path class="st2" d="M168.8,143.9c1.5-1.1,3.3-1.9,5.1-2.3c-9.3-18.9-14-43-12.7-64.6c0-0.5,0.1-0.9,0.1-1.3
              c-1.6-0.7-3.4-1-5.1-1c-1.7,21.8,2.1,45.4,10.7,65.1C167.5,141.1,168.1,142.5,168.8,143.9z"/>
            <path class="st2" d="M215.8,171.6c0,0.1,0,0.2,0,0.3c2.6-0.9,5-2.2,7.4-3.7c-1.7-1.4-5.4-4.7-7.1-8.9c-0.1,0-0.1,0.1-0.2,0.1
              c-2.6,1.9-5.3,3-5.5,3c-0.2-0.1-2.9-1.1-5.5-3c0,0,0,0,0,0c-1.8,4.2-5.5,7.5-7.1,8.8c2.3,1.5,4.7,2.7,7.3,3.6c0-0.1,0-0.2,0-0.3
              c0.5-2.7,4-3.2,5.3-3.2S215.3,168.9,215.8,171.6z"/>
            <path class="st2" d="M258.2,77.4c-2.2,1.1-6.3,2.8-11.7,3.3c0.4,2.8,0.6,5.2,0.6,6.7c0.1,2.4,0.1,4.8,0,7.2c0,0.5,0,0.9-0.1,1.4
              l0,0.3c-0.3,4.6-0.9,9.4-1.9,14l-0.1,0.4c-1.8,8.2-4.3,14.1-5.2,16.2c-1.7,3.7-3.4,7.1-5.1,10.1c3.3,3.1,8.2,4.4,10.2,4.8
              C254.2,123.3,258.9,99.2,258.2,77.4z"/>
            <path class="st2" d="M225.2,168.8c-2.9,2-6,3.6-9.2,4.7c0.1,2.4-0.5,4.5-1.3,6.3c4.8-1.3,9.5-3.5,13.9-6.6
              C227.8,171.6,226.7,170,225.2,168.8z"/>
            <path class="st2" d="M244.4,143c-2.3-0.5-6.9-1.8-10.3-4.8c-6.2,10.7-12.4,17.2-17.1,20.6c1.7,4.3,5.6,7.7,7.1,8.9
              C232.3,162.1,239.1,153.4,244.4,143z"/>
          </g>
          <path class="st2" d="M227.4,74.2V78l0.8-0.1c0,0,0.2,0,0.4,0c0.4,0,1.2,0.1,1.7,0.6c0.5,0.5,0.6,1.2,0.4,2.3c0,0-7.6,32.9-9,39.1
            c-1.7-7.9-10.7-51.1-10.7-51.1l0-0.2H209l0,0.2c0,0-6.5,42-7.8,50.5c-1.7-7.3-9-38.5-9-38.5c0-0.2,0-0.4,0-0.6
            c0-0.9,0.2-1.5,0.6-1.9c0.6-0.5,1.4-0.5,1.5-0.5l0.8,0.1l0-3.6h-12.7v3.6l0.6,0.1c0.3,0.1,1.7,0.4,1.9,1.7
            c0,0,14.8,63.6,15.5,66.3l0,0.2h2.2l0-0.2c0.1-0.4,6.1-39.9,7.2-47.3c1.4,7.4,9.1,46.9,9.2,47.3l0,0.2h2l14.7-66.5
            c0.3-1.4,1.6-1.5,2.1-1.5c0.1,0,0.1,0,0.1,0l0.7,0.1v-3.8H227.4z"/>
        </g>
      </g>
    </symbol>
  </defs>
</svg>